<?xml version="1.0" encoding="utf-8"?><svg xml:space="preserve" viewBox="0 0 100 100" y="0" x="0" xmlns="http://www.w3.org/2000/svg" id="圖層_1" version="1.1" width="200px" height="200px" xmlns:xlink="http://www.w3.org/1999/xlink" style="width:100%;height:100%;background-color:rgb(255, 255, 255);animation-play-state:paused" ><g class="ldl-scale" style="transform-origin-z:0px;transform-origin-y:50%;transform-origin-x:50%;transform:rotate(0deg) scale(0.8, 0.8);animation-play-state:paused" ><ellipse stroke="#333" fill="#e0e0e0" stroke-miterlimit="10" stroke-width="3.5" ry="6.5" rx="24.5" cy="83.5" cx="50" style="stroke:rgb(51, 51, 51);fill:rgb(224, 224, 224);animation-play-state:paused" ></ellipse>
<path stroke="#333" fill="#abbd81" stroke-miterlimit="10" stroke-width="3.5" d="M78.5 38.5c0-16.4-13.9-29.6-30.6-28.5-14 1-25.4 12.3-26.4 26.4-1 13.8 7.8 25.6 20.1 29.4 1.8.6 3.3 2 3.9 3.8l4.1 12.6c.1.3.6.3.7 0l4.1-12.6c.6-1.8 2-3.3 3.9-3.8C70 62.3 78.5 51.4 78.5 38.5zM50 50.8c-6.8 0-12.2-5.5-12.2-12.2 0-6.8 5.5-12.2 12.2-12.2s12.2 5.5 12.2 12.2c0 6.7-5.4 12.2-12.2 12.2z" style="stroke:rgb(51, 51, 51);fill:rgb(171, 189, 129);animation-play-state:paused" ></path>
<metadata xmlns:d="https://loading.io/stock/" style="animation-play-state:paused" ><d:name style="animation-play-state:paused" >location</d:name>


<d:tags style="animation-play-state:paused" >location,place,locality,marker,landmark,waypoint,gps</d:tags>


<d:license style="animation-play-state:paused" >by</d:license>


<d:slug style="animation-play-state:paused" >3tbf85</d:slug></metadata></g><!-- generated by https://loading.io/ --></svg>